<?xml version="1.0" standalone="no"?>
<!DOCTYPE svg PUBLIC "-//W3C//DTD SVG 20010904//EN"
 "http://www.w3.org/TR/2001/REC-SVG-20010904/DTD/svg10.dtd">
<svg version="1.0" xmlns="http://www.w3.org/2000/svg"
 width="1600.000000pt" height="1600.000000pt" viewBox="0 0 1600.000000 1600.000000"
 preserveAspectRatio="xMidYMid meet">

<g transform="translate(0.000000,1600.000000) scale(0.100000,-0.100000)"
fill="#000000" stroke="none">
<path d="M7550 15319 c-2135 -128 -4112 -1195 -5409 -2919 -790 -1051 -1288
-2305 -1430 -3605 -31 -282 -41 -474 -41 -795 0 -321 10 -513 41 -795 142
-1299 640 -2554 1430 -3605 1205 -1602 2998 -2641 4969 -2879 300 -37 392 -42
781 -48 744 -11 1351 54 2009 213 1039 251 1942 702 2745 1370 177 147 614
586 766 769 728 877 1209 1890 1453 3060 205 981 231 2054 76 3049 -17 104
-30 191 -30 193 0 1 -1555 3 -3455 3 l-3455 0 0 -1420 0 -1420 1970 0 c1775 0
1970 -2 1970 -16 0 -8 -14 -72 -30 -142 -297 -1240 -1245 -2186 -2575 -2567
-404 -116 -774 -171 -1215 -182 -708 -17 -1352 125 -1985 437 -846 417 -1527
1091 -1976 1955 -254 489 -420 1055 -481 1635 -16 159 -16 628 0 780 31 277
67 480 132 725 249 948 804 1789 1586 2401 577 451 1312 760 2039 858 393 53
892 45 1280 -20 759 -127 1437 -455 2005 -968 l84 -77 1050 1050 1050 1050
-70 64 c-1125 1040 -2542 1674 -4069 1821 -364 35 -870 46 -1215 25z"/>
</g>
</svg>
