<?xml version="1.0" encoding="UTF-8" standalone="no"?>
<svg
   viewBox="0 0 250 50"
   version="1.1"
   id="svg4"
   sodipodi:docname="gemini-sssxdv2g(1).svg"
   inkscape:version="1.4.4 (dcaf3e7d9e, 2026-05-05)"
   width="250"
   height="50"
   xmlns:inkscape="http://www.inkscape.org/namespaces/inkscape"
   xmlns:sodipodi="http://sodipodi.sourceforge.net/DTD/sodipodi-0.dtd"
   xmlns="http://www.w3.org/2000/svg"
   xmlns:svg="http://www.w3.org/2000/svg">
  <defs
     id="defs4" />
  <sodipodi:namedview
     id="namedview4"
     pagecolor="#ffffff"
     bordercolor="#000000"
     borderopacity="0.25"
     inkscape:showpageshadow="2"
     inkscape:pageopacity="0.0"
     inkscape:pagecheckerboard="0"
     inkscape:deskcolor="#d1d1d1"
     inkscape:zoom="5.9377778"
     inkscape:cx="120.92066"
     inkscape:cy="36.882485"
     inkscape:window-width="1920"
     inkscape:window-height="1011"
     inkscape:window-x="0"
     inkscape:window-y="0"
     inkscape:window-maximized="1"
     inkscape:current-layer="svg4" />
  <!-- Icono G minimalista escalado y centrado un poco más -->
  <g
     transform="matrix(1.6547741,0,0,1.6548527,38.427561,1.5449975)"
     id="g4"
     style="fill:#000000;fill-opacity:1">
    <path
       d="m 22.56,12.25 c 0,-0.78 -0.07,-1.53 -0.2,-2.25 H 12 v 4.26 h 5.92 c -0.26,1.37 -1.04,2.53 -2.21,3.31 v 2.77 h 3.57 c 2.08,-1.92 3.28,-4.74 3.28,-8.09 z"
       fill="#000000"
       id="path1"
       style="fill:#000000;fill-opacity:1" />
    <path
       d="m 12,23 c 2.97,0 5.46,-0.98 7.28,-2.66 l -3.57,-2.77 c -1,0.67 -2.28,1.06 -3.71,1.06 -2.86,0 -5.29,-1.93 -6.16,-4.53 H 2.18 v 2.84 C 3.99,20.53 7.7,23 12,23 Z"
       fill="#000000"
       id="path2"
       style="fill:#000000;fill-opacity:1" />
    <path
       d="M 5.84,14.1 C 5.62,13.44 5.49,12.74 5.49,12 5.49,11.26 5.62,10.56 5.84,9.9 V 7.06 H 2.18 C 1.43,8.55 1,10.22 1,12 c 0,1.78 0.43,3.45 1.18,4.94 z"
       fill="#000000"
       id="path3"
       style="fill:#000000;fill-opacity:1" />
    <path
       d="m 12,5.38 c 1.62,0 3.06,0.56 4.21,1.66 L 19.36,3.89 C 17.45,2.09 14.97,1 12,1 7.7,1 3.99,3.47 2.18,7.06 L 5.84,9.9 C 6.71,7.3 9.14,5.38 12,5.38 Z"
       fill="#000000"
       id="path4"
       style="fill:#000000;fill-opacity:1" />
  </g>
  <!-- Texto complementario con más espacio inicial y espaciado entre letras aumentado -->
  <text
     x="77.063332"
     y="39.505669"
     font-family="'Segoe UI', Helvetica, Arial, sans-serif"
     font-weight="600"
     font-size="44px"
     letter-spacing="0"
     fill="#000000"
     id="text4"
     style="fill:#000000;fill-opacity:1">aptical</text>
</svg>
