<?xml version="1.0" encoding="UTF-8" standalone="no"?>
<svg
   viewBox="0 0 24 24"
   version="1.1"
   id="svg4"
   sodipodi:docname="gemini-svg.svg"
   inkscape:version="1.4.4 (dcaf3e7d9e, 2026-05-05)"
   xmlns:inkscape="http://www.inkscape.org/namespaces/inkscape"
   xmlns:sodipodi="http://sodipodi.sourceforge.net/DTD/sodipodi-0.dtd"
   xmlns="http://www.w3.org/2000/svg"
   xmlns:svg="http://www.w3.org/2000/svg">
  <defs
     id="defs4" />
  <sodipodi:namedview
     id="namedview4"
     pagecolor="#ffffff"
     bordercolor="#000000"
     borderopacity="0.25"
     inkscape:showpageshadow="2"
     inkscape:pageopacity="0.0"
     inkscape:pagecheckerboard="0"
     inkscape:deskcolor="#d1d1d1"
     inkscape:zoom="16"
     inkscape:cx="16.375"
     inkscape:cy="17.9375"
     inkscape:window-width="1920"
     inkscape:window-height="1011"
     inkscape:window-x="0"
     inkscape:window-y="0"
     inkscape:window-maximized="1"
     inkscape:current-layer="svg4" />
  <path
     d="M22.56 12.25c0-.78-.07-1.53-.2-2.25H12v4.26h5.92c-.26 1.37-1.04 2.53-2.21 3.31v2.77h3.57c2.08-1.92 3.28-4.74 3.28-8.09z"
     fill="#000000"
     id="path1"
     style="fill:#ffffff;fill-opacity:1" />
  <path
     d="M12 23c2.97 0 5.46-.98 7.28-2.66l-3.57-2.77c-1 .67-2.28 1.06-3.71 1.06-2.86 0-5.29-1.93-6.16-4.53H2.18v2.84C3.99 20.53 7.7 23 12 23z"
     fill="#000000"
     id="path2"
     style="fill:#ffffff;fill-opacity:1" />
  <path
     d="M5.84 14.1c-.22-.66-.35-1.36-.35-2.1s.13-1.44.35-2.1V7.06H2.18C1.43 8.55 1 10.22 1 12s.43 3.45 1.18 4.94l3.66-2.84z"
     fill="#000000"
     id="path3"
     style="fill:#ffffff;fill-opacity:1" />
  <path
     d="M12 5.38c1.62 0 3.06.56 4.21 1.66l3.15-3.15C17.45 2.09 14.97 1 12 1 7.7 1 3.99 3.47 2.18 7.06l3.66 2.84c.87-2.6 3.3-4.52 6.16-4.52z"
     fill="#000000"
     id="path4"
     style="fill:#ffffff;fill-opacity:1" />
</svg>
